<mxfile host="app.diagrams.net" modified="2024-01-10T12:39:31.547Z" agent="Mozilla/5.0 (Windows NT 10.0; Win64; x64) AppleWebKit/537.36 (KHTML, like Gecko) Chrome/120.0.0.0 Safari/537.36 Edg/120.0.0.0" etag="rP2aia2juYyGu1-h-Xwh" version="22.1.17" type="device">
  <diagram name="Page-1" id="kr6wympDN0jSRriVzyMd">
    <mxGraphModel dx="1179" dy="669" grid="1" gridSize="10" guides="1" tooltips="1" connect="1" arrows="1" fold="1" page="1" pageScale="1" pageWidth="850" pageHeight="1100" math="0" shadow="0">
      <root>
        <mxCell id="0" />
        <mxCell id="1" parent="0" />
        <mxCell id="QBY_KsVb-CWjgW40KQGU-1" value="User" style="shape=umlActor;verticalLabelPosition=bottom;verticalAlign=top;html=1;outlineConnect=0;" vertex="1" parent="1">
          <mxGeometry x="30" y="60" width="50" height="70" as="geometry" />
        </mxCell>
        <mxCell id="QBY_KsVb-CWjgW40KQGU-7" value="Registration" style="rounded=0;whiteSpace=wrap;html=1;" vertex="1" parent="1">
          <mxGeometry x="160" y="35" width="120" height="40" as="geometry" />
        </mxCell>
        <mxCell id="QBY_KsVb-CWjgW40KQGU-12" value="Login" style="rounded=1;whiteSpace=wrap;html=1;" vertex="1" parent="1">
          <mxGeometry x="370" y="35" width="120" height="45" as="geometry" />
        </mxCell>
        <mxCell id="QBY_KsVb-CWjgW40KQGU-16" value="Search" style="rounded=0;whiteSpace=wrap;html=1;" vertex="1" parent="1">
          <mxGeometry x="160" y="110" width="120" height="40" as="geometry" />
        </mxCell>
        <mxCell id="QBY_KsVb-CWjgW40KQGU-17" value="" style="endArrow=classic;html=1;rounded=0;" edge="1" parent="1">
          <mxGeometry width="50" height="50" relative="1" as="geometry">
            <mxPoint x="300" y="129.5" as="sourcePoint" />
            <mxPoint x="370" y="129.5" as="targetPoint" />
          </mxGeometry>
        </mxCell>
        <mxCell id="QBY_KsVb-CWjgW40KQGU-18" value="" style="endArrow=classic;html=1;rounded=0;" edge="1" parent="1">
          <mxGeometry width="50" height="50" relative="1" as="geometry">
            <mxPoint x="290" y="54.5" as="sourcePoint" />
            <mxPoint x="360" y="54.5" as="targetPoint" />
          </mxGeometry>
        </mxCell>
        <mxCell id="QBY_KsVb-CWjgW40KQGU-20" value="Products" style="shape=parallelogram;perimeter=parallelogramPerimeter;whiteSpace=wrap;html=1;fixedSize=1;" vertex="1" parent="1">
          <mxGeometry x="380" y="110" width="120" height="40" as="geometry" />
        </mxCell>
        <mxCell id="QBY_KsVb-CWjgW40KQGU-21" value="" style="endArrow=classic;html=1;rounded=0;" edge="1" parent="1">
          <mxGeometry width="50" height="50" relative="1" as="geometry">
            <mxPoint x="510" y="129.5" as="sourcePoint" />
            <mxPoint x="580" y="129.5" as="targetPoint" />
          </mxGeometry>
        </mxCell>
        <mxCell id="QBY_KsVb-CWjgW40KQGU-23" value="Categories" style="rounded=1;whiteSpace=wrap;html=1;" vertex="1" parent="1">
          <mxGeometry x="590" y="110" width="120" height="40" as="geometry" />
        </mxCell>
        <mxCell id="QBY_KsVb-CWjgW40KQGU-25" value="" style="strokeWidth=2;html=1;shape=mxgraph.flowchart.annotation_2;align=left;labelPosition=right;pointerEvents=1;" vertex="1" parent="1">
          <mxGeometry x="100" y="50" width="50" height="90" as="geometry" />
        </mxCell>
        <mxCell id="QBY_KsVb-CWjgW40KQGU-26" value="" style="endArrow=classic;html=1;rounded=0;" edge="1" parent="1">
          <mxGeometry width="50" height="50" relative="1" as="geometry">
            <mxPoint x="649.8199999999999" y="160" as="sourcePoint" />
            <mxPoint x="649.41" y="210" as="targetPoint" />
          </mxGeometry>
        </mxCell>
        <mxCell id="QBY_KsVb-CWjgW40KQGU-27" value="Sub - Categories" style="rounded=0;whiteSpace=wrap;html=1;" vertex="1" parent="1">
          <mxGeometry x="590" y="220" width="120" height="40" as="geometry" />
        </mxCell>
        <mxCell id="QBY_KsVb-CWjgW40KQGU-28" value="" style="endArrow=classic;html=1;rounded=0;" edge="1" parent="1">
          <mxGeometry width="50" height="50" relative="1" as="geometry">
            <mxPoint x="580" y="240" as="sourcePoint" />
            <mxPoint x="520" y="240" as="targetPoint" />
          </mxGeometry>
        </mxCell>
        <mxCell id="QBY_KsVb-CWjgW40KQGU-30" value="Product Selection" style="rounded=1;whiteSpace=wrap;html=1;" vertex="1" parent="1">
          <mxGeometry x="380" y="220" width="120" height="40" as="geometry" />
        </mxCell>
        <mxCell id="QBY_KsVb-CWjgW40KQGU-31" value="" style="endArrow=classic;html=1;rounded=0;" edge="1" parent="1">
          <mxGeometry width="50" height="50" relative="1" as="geometry">
            <mxPoint x="360" y="239.41" as="sourcePoint" />
            <mxPoint x="300" y="239.41" as="targetPoint" />
          </mxGeometry>
        </mxCell>
        <mxCell id="QBY_KsVb-CWjgW40KQGU-32" value="Product Specification" style="shape=parallelogram;perimeter=parallelogramPerimeter;whiteSpace=wrap;html=1;fixedSize=1;" vertex="1" parent="1">
          <mxGeometry x="130" y="210" width="150" height="40" as="geometry" />
        </mxCell>
        <mxCell id="QBY_KsVb-CWjgW40KQGU-33" value="" style="endArrow=classic;html=1;rounded=0;" edge="1" parent="1">
          <mxGeometry width="50" height="50" relative="1" as="geometry">
            <mxPoint x="190.4099999999999" y="260" as="sourcePoint" />
            <mxPoint x="189.99999999999994" y="310" as="targetPoint" />
          </mxGeometry>
        </mxCell>
        <mxCell id="QBY_KsVb-CWjgW40KQGU-34" value="Offers" style="rounded=0;whiteSpace=wrap;html=1;" vertex="1" parent="1">
          <mxGeometry x="130" y="320" width="120" height="40" as="geometry" />
        </mxCell>
        <mxCell id="QBY_KsVb-CWjgW40KQGU-35" value="" style="endArrow=classic;html=1;rounded=0;" edge="1" parent="1">
          <mxGeometry width="50" height="50" relative="1" as="geometry">
            <mxPoint x="270" y="339.40999999999997" as="sourcePoint" />
            <mxPoint x="340" y="339.40999999999997" as="targetPoint" />
          </mxGeometry>
        </mxCell>
        <mxCell id="QBY_KsVb-CWjgW40KQGU-36" value="Storage Selection" style="shape=parallelogram;perimeter=parallelogramPerimeter;whiteSpace=wrap;html=1;fixedSize=1;" vertex="1" parent="1">
          <mxGeometry x="360" y="320" width="140" height="40" as="geometry" />
        </mxCell>
        <mxCell id="QBY_KsVb-CWjgW40KQGU-37" value="" style="endArrow=classic;html=1;rounded=0;" edge="1" parent="1">
          <mxGeometry width="50" height="50" relative="1" as="geometry">
            <mxPoint x="520" y="339.40999999999997" as="sourcePoint" />
            <mxPoint x="590" y="339.40999999999997" as="targetPoint" />
          </mxGeometry>
        </mxCell>
        <mxCell id="QBY_KsVb-CWjgW40KQGU-38" value="Add to Cart" style="rounded=1;whiteSpace=wrap;html=1;" vertex="1" parent="1">
          <mxGeometry x="600" y="320" width="120" height="40" as="geometry" />
        </mxCell>
        <mxCell id="QBY_KsVb-CWjgW40KQGU-39" value="" style="endArrow=classic;html=1;rounded=0;" edge="1" parent="1">
          <mxGeometry width="50" height="50" relative="1" as="geometry">
            <mxPoint x="659.8199999999999" y="370" as="sourcePoint" />
            <mxPoint x="659.41" y="420" as="targetPoint" />
          </mxGeometry>
        </mxCell>
        <mxCell id="QBY_KsVb-CWjgW40KQGU-40" value="Price Details" style="shape=parallelogram;perimeter=parallelogramPerimeter;whiteSpace=wrap;html=1;fixedSize=1;" vertex="1" parent="1">
          <mxGeometry x="580" y="430" width="140" height="40" as="geometry" />
        </mxCell>
        <mxCell id="QBY_KsVb-CWjgW40KQGU-41" value="" style="endArrow=classic;html=1;rounded=0;" edge="1" parent="1">
          <mxGeometry width="50" height="50" relative="1" as="geometry">
            <mxPoint x="580" y="449.41" as="sourcePoint" />
            <mxPoint x="520" y="449.41" as="targetPoint" />
          </mxGeometry>
        </mxCell>
        <mxCell id="QBY_KsVb-CWjgW40KQGU-42" value="Place Order" style="rounded=1;whiteSpace=wrap;html=1;" vertex="1" parent="1">
          <mxGeometry x="380" y="430" width="120" height="40" as="geometry" />
        </mxCell>
        <mxCell id="QBY_KsVb-CWjgW40KQGU-43" value="" style="endArrow=classic;html=1;rounded=0;" edge="1" parent="1">
          <mxGeometry width="50" height="50" relative="1" as="geometry">
            <mxPoint x="360" y="449.41" as="sourcePoint" />
            <mxPoint x="300" y="449.41" as="targetPoint" />
          </mxGeometry>
        </mxCell>
        <mxCell id="QBY_KsVb-CWjgW40KQGU-44" value="Login or Sign up" style="rounded=0;whiteSpace=wrap;html=1;" vertex="1" parent="1">
          <mxGeometry x="160" y="430" width="120" height="40" as="geometry" />
        </mxCell>
        <mxCell id="QBY_KsVb-CWjgW40KQGU-45" value="" style="endArrow=classic;html=1;rounded=0;" edge="1" parent="1">
          <mxGeometry width="50" height="50" relative="1" as="geometry">
            <mxPoint x="210.4099999999999" y="480" as="sourcePoint" />
            <mxPoint x="209.99999999999994" y="530" as="targetPoint" />
          </mxGeometry>
        </mxCell>
        <mxCell id="QBY_KsVb-CWjgW40KQGU-46" value="Delivery Address" style="rounded=1;whiteSpace=wrap;html=1;" vertex="1" parent="1">
          <mxGeometry x="150" y="540" width="120" height="40" as="geometry" />
        </mxCell>
        <mxCell id="QBY_KsVb-CWjgW40KQGU-47" value="" style="endArrow=classic;html=1;rounded=0;" edge="1" parent="1">
          <mxGeometry width="50" height="50" relative="1" as="geometry">
            <mxPoint x="290" y="559.41" as="sourcePoint" />
            <mxPoint x="360" y="559.41" as="targetPoint" />
          </mxGeometry>
        </mxCell>
        <mxCell id="QBY_KsVb-CWjgW40KQGU-48" value="Order Summary" style="shape=parallelogram;perimeter=parallelogramPerimeter;whiteSpace=wrap;html=1;fixedSize=1;" vertex="1" parent="1">
          <mxGeometry x="380" y="540" width="140" height="40" as="geometry" />
        </mxCell>
        <mxCell id="QBY_KsVb-CWjgW40KQGU-49" value="" style="endArrow=classic;html=1;rounded=0;" edge="1" parent="1">
          <mxGeometry width="50" height="50" relative="1" as="geometry">
            <mxPoint x="520" y="559.41" as="sourcePoint" />
            <mxPoint x="590" y="559.41" as="targetPoint" />
          </mxGeometry>
        </mxCell>
        <mxCell id="QBY_KsVb-CWjgW40KQGU-50" value="Payment Option" style="rounded=0;whiteSpace=wrap;html=1;" vertex="1" parent="1">
          <mxGeometry x="610" y="540" width="120" height="40" as="geometry" />
        </mxCell>
        <mxCell id="QBY_KsVb-CWjgW40KQGU-51" value="" style="endArrow=none;html=1;rounded=0;" edge="1" parent="1">
          <mxGeometry width="50" height="50" relative="1" as="geometry">
            <mxPoint x="730" y="370" as="sourcePoint" />
            <mxPoint x="750" y="310" as="targetPoint" />
          </mxGeometry>
        </mxCell>
        <mxCell id="QBY_KsVb-CWjgW40KQGU-52" value="Buy Now" style="rounded=1;whiteSpace=wrap;html=1;" vertex="1" parent="1">
          <mxGeometry x="760" y="320" width="120" height="40" as="geometry" />
        </mxCell>
        <mxCell id="QBY_KsVb-CWjgW40KQGU-53" value="" style="endArrow=classic;html=1;rounded=0;" edge="1" parent="1">
          <mxGeometry width="50" height="50" relative="1" as="geometry">
            <mxPoint x="819.8199999999999" y="370" as="sourcePoint" />
            <mxPoint x="819.41" y="420" as="targetPoint" />
          </mxGeometry>
        </mxCell>
        <mxCell id="QBY_KsVb-CWjgW40KQGU-54" value="Login or Sign up" style="rounded=0;whiteSpace=wrap;html=1;" vertex="1" parent="1">
          <mxGeometry x="760" y="430" width="120" height="40" as="geometry" />
        </mxCell>
        <mxCell id="QBY_KsVb-CWjgW40KQGU-55" value="" style="endArrow=classic;html=1;rounded=0;" edge="1" parent="1">
          <mxGeometry width="50" height="50" relative="1" as="geometry">
            <mxPoint x="819.8199999999999" y="480" as="sourcePoint" />
            <mxPoint x="819.41" y="530" as="targetPoint" />
          </mxGeometry>
        </mxCell>
        <mxCell id="QBY_KsVb-CWjgW40KQGU-56" value="Delivery Address" style="rounded=1;whiteSpace=wrap;html=1;" vertex="1" parent="1">
          <mxGeometry x="760" y="540" width="120" height="40" as="geometry" />
        </mxCell>
        <mxCell id="QBY_KsVb-CWjgW40KQGU-57" value="" style="endArrow=classic;html=1;rounded=0;" edge="1" parent="1">
          <mxGeometry width="50" height="50" relative="1" as="geometry">
            <mxPoint x="819.8199999999999" y="590" as="sourcePoint" />
            <mxPoint x="819.41" y="640" as="targetPoint" />
          </mxGeometry>
        </mxCell>
        <mxCell id="QBY_KsVb-CWjgW40KQGU-58" value="Order Summary" style="shape=parallelogram;perimeter=parallelogramPerimeter;whiteSpace=wrap;html=1;fixedSize=1;" vertex="1" parent="1">
          <mxGeometry x="760" y="660" width="140" height="40" as="geometry" />
        </mxCell>
        <mxCell id="QBY_KsVb-CWjgW40KQGU-59" value="" style="endArrow=classic;html=1;rounded=0;" edge="1" parent="1">
          <mxGeometry width="50" height="50" relative="1" as="geometry">
            <mxPoint x="819.8199999999999" y="730" as="sourcePoint" />
            <mxPoint x="819.41" y="780" as="targetPoint" />
          </mxGeometry>
        </mxCell>
        <mxCell id="QBY_KsVb-CWjgW40KQGU-60" value="Payment Option" style="rounded=0;whiteSpace=wrap;html=1;" vertex="1" parent="1">
          <mxGeometry x="760" y="790" width="120" height="40" as="geometry" />
        </mxCell>
      </root>
    </mxGraphModel>
  </diagram>
</mxfile>
